<?xml version="1.0" encoding="UTF-8" standalone="no"?>
<svg
   xmlns:dc="http://purl.org/dc/elements/1.1/"
   xmlns:cc="http://creativecommons.org/ns#"
   xmlns:rdf="http://www.w3.org/1999/02/22-rdf-syntax-ns#"
   xmlns:svg="http://www.w3.org/2000/svg"
   xmlns="http://www.w3.org/2000/svg"
   xmlns:sodipodi="http://sodipodi.sourceforge.net/DTD/sodipodi-0.dtd"
   xmlns:inkscape="http://www.inkscape.org/namespaces/inkscape"
   id="Layer_1"
   data-name="Layer 1"
   viewBox="0 0 360 360"
   version="1.1"
   sodipodi:docname="supplies-calc-icon-sm.svg"
   width="360"
   height="360"
   inkscape:version="0.92.3 (2405546, 2018-03-11)">
  <metadata
     id="metadata87">
    <rdf:RDF>
      <cc:Work
         rdf:about="">
        <dc:format>image/svg+xml</dc:format>
        <dc:type
           rdf:resource="http://purl.org/dc/dcmitype/StillImage" />
        <dc:title>Artboard 1 copy 12voluntary-army-revdia</dc:title>
      </cc:Work>
    </rdf:RDF>
  </metadata>
  <sodipodi:namedview
     pagecolor="#ffffff"
     bordercolor="#666666"
     borderopacity="1"
     objecttolerance="10"
     gridtolerance="10"
     guidetolerance="10"
     inkscape:pageopacity="0"
     inkscape:pageshadow="2"
     inkscape:window-width="1533"
     inkscape:window-height="845"
     id="namedview85"
     showgrid="false"
     fit-margin-top="0"
     fit-margin-left="0"
     fit-margin-right="0"
     fit-margin-bottom="0"
     inkscape:zoom="1.3275"
     inkscape:cx="76.000199"
     inkscape:cy="110.87311"
     inkscape:window-x="67"
     inkscape:window-y="27"
     inkscape:window-maximized="1"
     inkscape:current-layer="Layer_1" />
  <defs
     id="defs4">
    <style
       id="style2">.cls-1{fill:#dc163f;}.cls-2{fill:#ad1540;}.cls-3{fill:#fff;}</style>
  </defs>
  <title
     id="title6">Artboard 1 copy 12voluntary-army-revdia</title>
  <g
     id="g932"
     transform="translate(13.266201,-3.3498678)">
    <path
       style="fill:#dc163f"
       inkscape:connector-curvature="0"
       id="path8"
       d="m 322.10658,124.45992 c -3.1,0 -9.41,1.78 -11.14,8.38 a 5.55,5.55 0 0 1 -4,3.85 l -21.64,6 a 5.6,5.6 0 0 1 -6.8,-3.6 112.63,112.63 0 0 0 -30.26,-46.880003 5.63,5.63 0 0 1 -1.83,-4.19 5.56,5.56 0 0 1 1.83,-4.11 l 16.06,-14.61 a 9.74,9.74 0 0 1 7.92,-2.46 26.35,26.35 0 0 0 7.42,0 26.71,26.71 0 1 0 -29.8,-20.51 9.88,9.88 0 0 1 -1.71,8.22 l -14.87,19.66 a 6.06,6.06 0 0 1 -7.2,1.91 c -16.63,-7.08 -22.41,-8.52 -29.33,-9.9 -4.63,-0.92 -14.2,-2.34 -21,-3.27 a 5.58,5.58 0 0 1 -4.77,-4.61 l -3.32,-19.25 a 6.77,6.77 0 0 1 2,-6.17 11.75,11.75 0 0 0 3.79,-10.2 11.83,11.83 0 1 0 -17.69,11.61 6.79,6.79 0 0 1 3.26,5.47 l 1.19,17.73 a 5.61,5.61 0 0 1 -4.72,5.92 112,112 0 0 0 -52,22.12 5.66,5.66 0 0 1 -7.500002,-0.46 l -32,-32.62 a 9.83,9.83 0 0 1 -2.34,-9.57 28.77,28.77 0 0 0 -27.89,-36.2200009 h -0.25 a 28.83,28.83 0 0 0 -21.16,9.5699999 28.51,28.51 0 0 0 -7.1800001,22.160001 28.75,28.75 0 0 0 37.4300001,24.4 9.86,9.86 0 0 1 9.63,1.94 l 33.15,29.92 a 5.59,5.59 0 0 1 0.46,7.770003 112.24,112.24 0 0 0 -24.08,50.43 5.61,5.61 0 0 1 -6.21,4.44 l -6,-0.76 a 7,7 0 0 1 -6,-5 22.14,22.14 0 0 0 -22.53,-16.14 22.37,22.37 0 0 0 -21.00000005,21.1 22.19,22.19 0 0 0 39.00000005,15.54 6.79,6.79 0 0 1 6.07,-2.2 l 9.7,1.23 a 5.65,5.65 0 0 1 4.92,5.51 c 0,0.9 0,3.91 0.11,4.77 1.66,25.77 9,44.77 24.53,63.53 a 5.64,5.64 0 0 1 0,7.25 l -23,27.11 a 8.25,8.25 0 0 1 -8,2.82 24.8,24.8 0 0 0 -20.36,43.85 c 7,5.46 16,6.72 24.74,3.44 a 23.18,23.18 0 0 0 13.24,-12.92 25.45,25.45 0 0 0 0.75,-18 8.46,8.46 0 0 1 1.23,-7.83 l 20.81,-27.43 a 5.62,5.62 0 0 1 3.81,-2.2 5.46,5.46 0 0 1 4.130002,1.16 112.55,112.55 0 0 0 70.26,24.7 c 0.9,0 1.81,0 2.71,0 a 5.59,5.59 0 0 1 5.67,5.21 l 1.8,24.48 a 7,7 0 0 1 -2.93,6.23 20.55,20.55 0 0 0 9.7,37.09 21.17,21.17 0 0 0 2.37,0.13 20.33,20.33 0 0 0 13.68,-5.24 20.54,20.54 0 0 0 -4.54,-33.7 6.89,6.89 0 0 1 -3.72,-5.36 l -3.16,-25.65 a 5.79,5.79 0 0 1 4.23,-6.14 112.39,112.39 0 0 0 49.65,-26.15 5.61,5.61 0 0 1 7.42,-0.21 l 24.55,20.5 a 7,7 0 0 1 2.38,6.13 16.58,16.58 0 0 0 0,2.73 16,16 0 0 0 15.65,14.8 16.16,16.16 0 0 0 11.84,-5.07 15.88,15.88 0 0 0 -15.37,-26.31 7.06,7.06 0 0 1 -6.47,-1.5 l -23.46,-21.31 a 5.57,5.57 0 0 1 -0.83,-7.37 111.44,111.44 0 0 0 21.15,-65.59 114.81,114.81 0 0 0 -0.76,-13.1 5.63,5.63 0 0 1 3.23,-5.8 l 23.32,-10.69 a 5.76,5.76 0 0 1 5.57,0.59 11.5,11.5 0 0 0 17.82,-9.76 11.59,11.59 0 0 0 -11.36,-11.34 z"
       class="cls-1" />
    <path
       style="fill:#ad1540"
       inkscape:connector-curvature="0"
       id="path10"
       d="m 221.76658,234.07992 c -5.51,25.58 -5,27.81 -37.53,37.53 -32.53,9.72 -37.47,-16.8 -37.47,-37.53 0,-20.73 3.53,-45.81 37.54,-37.54 34.01,8.27 43,11.96 37.46,37.54 z"
       class="cls-2" />
    <path
       style="fill:#ad1540"
       inkscape:connector-curvature="0"
       id="path12"
       d="m 271.42658,161.05992 c 2.34,27.69 -13.27,23.69 -31.11,31.11 -17.84,7.42 -22.92,-6.32 -31.11,-31.11 -8.19,-24.79 19.55,-27 31.11,-31.11 11.56,-4.11 31.11,13.93 31.11,31.11 z"
       class="cls-2" />
    <path
       style="fill:#ad1540"
       inkscape:connector-curvature="0"
       id="path14"
       d="m 208.56658,106.20992 c -4.21,8.1 -8.48,17.28 -21.19,21.18 -12.71,3.9 -21.18,-9.48 -21.18,-21.18 0,-11.700003 8.79,-17.440003 21.18,-21.180003 12.39,-3.74 25.39,13.08 21.19,21.180003 z"
       class="cls-2" />
    <path
       style="fill:#ad1540"
       inkscape:connector-curvature="0"
       id="path16"
       d="m 134.45658,204.38992 c 3.72,16.69 -10.69,11.88 -23.18,11.88 -12.490002,0 -17.680002,-4.21 -25.300002,-19.76 -7.62,-15.55 18.940002,-21.06 29.650002,-13.88 10.71,7.18 15.14,5.07 18.83,21.76 z"
       class="cls-2" />
    <path
       style="fill:#ad1540"
       inkscape:connector-curvature="0"
       id="path18"
       d="m 196.03658,161.05992 c 8.07,23.64 -2.9,15.86 -22.62,22.62 -19.72,6.76 -28.84,-10 -22.62,-22.62 6.22,-12.62 -3.43,-22.62 22.62,-22.62 26.05,0 14.55,-1.02 22.62,22.62 z"
       class="cls-2" />
    <path
       style="fill:#ad1540"
       inkscape:connector-curvature="0"
       id="path20"
       d="m 143.84658,129.94992 c -0.38,13.86 -5.68,16.48 -13.28,17.95 -7.6,1.47 -10.41,5.51 -20.05,4.88 -9.64,-0.63 -25.420002,-5.78 -19.120002,-22.83 6.3,-17.05 5.51,-14.59 26.230002,-26.23 20.72,-11.640003 26.84,3.24 26.22,26.23 z"
       class="cls-2" />
    <path
       style="fill:#ffffff"
       inkscape:connector-curvature="0"
       id="path22"
       d="m 189.76658,229.72992 11.49,-0.85 a 3.72,3.72 0 0 1 4,3.42 v 0 a 3.72,3.72 0 0 1 -3.43,4 l -11.49,0.85 a 1.4,1.4 0 0 0 -1.29,1.51 l 1,14 a 3.71,3.71 0 0 1 -3.43,4 l -0.79,0.06 a 3.71,3.71 0 0 1 -4,-3.42 l -1,-14 a 1.4,1.4 0 0 0 -1.51,-1.3 l -11.61,0.86 a 3.7,3.7 0 0 1 -4,-3.42 v 0 a 3.72,3.72 0 0 1 3.42,-4 l 11.61,-0.86 a 1.4,1.4 0 0 0 1.3,-1.51 l -0.93,-12.48 a 3.71,3.71 0 0 1 3.43,-4 l 0.79,-0.06 a 3.71,3.71 0 0 1 4,3.42 l 0.93,12.49 a 1.4,1.4 0 0 0 1.51,1.29 z"
       class="cls-3" />
    <path
       style="fill:#ffffff"
       inkscape:connector-curvature="0"
       id="path24"
       d="m 224.32658,163.58992 a 6.75,6.75 0 0 1 -1.86,-4.78 7.17,7.17 0 0 1 7.27,-6.61 6.75,6.75 0 0 1 4.59,2.33 l 1.16,1.28 a 6.67,6.67 0 0 1 1.85,4.76 6.4,6.4 0 0 1 -2.31,4.7 6.49,6.49 0 0 1 -5,1.89 6.6,6.6 0 0 1 -4.58,-2.29 z m 3.59,-0.92 a 4.42,4.42 0 0 0 2.56,1.48 3.15,3.15 0 0 0 2.71,-0.9 3,3 0 0 0 1.11,-2.55 4.41,4.41 0 0 0 -1.24,-2.7 l -1.16,-1.27 a 4.46,4.46 0 0 0 -2.57,-1.49 3.4,3.4 0 0 0 -3.81,3.45 4.54,4.54 0 0 0 1.24,2.7 z m 16.94,13.55 v 0 a 1.43,1.43 0 0 1 -1.67,-1.15 l -4.83,-26.74 a 1.43,1.43 0 0 1 1.15,-1.66 v 0 a 1.43,1.43 0 0 1 1.67,1.15 l 4.83,26.78 a 1.43,1.43 0 0 1 -1.15,1.62 z m 3.51,-9.65 a 6.7,6.7 0 0 1 -1.85,-4.78 6.38,6.38 0 0 1 2.33,-4.73 6.47,6.47 0 0 1 4.93,-1.86 6.65,6.65 0 0 1 4.58,2.31 l 1.18,1.29 a 6.72,6.72 0 0 1 1.86,4.79 6.44,6.44 0 0 1 -2.31,4.69 6.53,6.53 0 0 1 -4.95,1.9 6.73,6.73 0 0 1 -4.6,-2.31 z m 3.6,-0.9 a 4.42,4.42 0 0 0 2.57,1.49 3.14,3.14 0 0 0 2.71,-0.9 3,3 0 0 0 1.1,-2.56 4.41,4.41 0 0 0 -1.24,-2.7 l -1.17,-1.29 a 4.44,4.44 0 0 0 -2.58,-1.48 3.39,3.39 0 0 0 -3.79,3.44 4.45,4.45 0 0 0 1.2,2.66 z"
       class="cls-3" />
    <path
       style="fill:#ffffff"
       inkscape:connector-curvature="0"
       id="path26"
       d="m 120.21658,208.83992 -19.4,-14.17 a 2.69,2.69 0 0 1 -0.58,-3.75 v 0 a 2.69,2.69 0 0 1 3.75,-0.59 l 19.4,14.17 a 2.68,2.68 0 0 1 0.59,3.75 v 0 a 2.68,2.68 0 0 1 -3.76,0.59 z"
       class="cls-3" />
    <path
       style="fill:#ffffff"
       inkscape:connector-curvature="0"
       id="path28"
       d="m 183.06658,167.32992 -4.62,-5.23 a 1.41,1.41 0 0 1 0.12,-2 l 5.24,-4.62 a 2.42,2.42 0 0 0 0.21,-3.41 v 0 a 2.42,2.42 0 0 0 -3.41,-0.22 l -5.23,4.62 a 1.41,1.41 0 0 1 -2,-0.12 l -4.61,-5.17 a 2.42,2.42 0 0 0 -3.41,-0.22 v 0 a 2.43,2.43 0 0 0 -0.21,3.42 l 4.62,5.23 a 1.4,1.4 0 0 1 -0.13,2 l -5.23,4.62 a 2.42,2.42 0 0 0 -0.21,3.41 v 0 a 2.42,2.42 0 0 0 3.41,0.22 l 5.23,-4.62 a 1.41,1.41 0 0 1 2,0.12 l 4.62,5.23 a 2.42,2.42 0 0 0 3.41,0.22 v 0 a 2.43,2.43 0 0 0 0.2,-3.48 z"
       class="cls-3" />
    <path
       style="fill:#ffffff"
       inkscape:connector-curvature="0"
       id="path30"
       d="m 129.18658,120.85992 -24.68,8.83 a 2.94,2.94 0 0 1 -3.75,-1.77 v 0 a 2.94,2.94 0 0 1 1.77,-3.75 l 24.68,-8.84 a 2.94,2.94 0 0 1 3.75,1.77 v 0 a 2.94,2.94 0 0 1 -1.77,3.76 z"
       class="cls-3" />
    <path
       style="fill:#ffffff"
       inkscape:connector-curvature="0"
       id="path32"
       d="m 132.76658,130.84992 -24.68,8.83 a 2.94,2.94 0 0 1 -3.75,-1.77 v 0 a 2.93,2.93 0 0 1 1.78,-3.75 l 24.65,-8.83 a 2.93,2.93 0 0 1 3.75,1.77 v 0 a 2.94,2.94 0 0 1 -1.75,3.75 z"
       class="cls-3" />
    <path
       style="fill:#ffffff"
       inkscape:connector-curvature="0"
       id="path34"
       d="m 196.62658,109.56992 -20.86,-3.74 a 2.36,2.36 0 0 1 -1.91,-2.75 v 0 a 2.37,2.37 0 0 1 2.75,-1.91 l 20.85,3.74 a 2.37,2.37 0 0 1 1.91,2.75 v 0 a 2.36,2.36 0 0 1 -2.74,1.91 z"
       class="cls-3" />
    <circle
       style="fill:#ffffff"
       id="circle36"
       r="3.3900001"
       cy="96.509911"
       cx="188.15659"
       class="cls-3" />
    <circle
       style="fill:#ffffff"
       id="circle38"
       r="3.3900001"
       cy="114.30992"
       cx="185.07657"
       class="cls-3" />
    <path
       style="fill:#ad1540"
       inkscape:connector-curvature="0"
       id="path40"
       d="m 161.21658,120.13992 c 0,2.42 6.7,3.65 -0.18,6.86 -6.88,3.21 -6.89,-1.48 -6.89,-3.9 0,-2.42 0.69,-3.55 3.11,-3.55 2.42,0 3.96,-1.83 3.96,0.59 z"
       class="cls-2" />
    <path
       style="fill:#ad1540"
       inkscape:connector-curvature="0"
       id="path42"
       d="m 251.62658,207.06992 c 0,2.43 6.7,3.65 -0.18,6.86 -6.88,3.21 -6.89,-1.48 -6.89,-3.9 0,-2.42 0.69,-3.54 3.11,-3.54 2.42,0 3.96,-1.84 3.96,0.58 z"
       class="cls-2" />
    <path
       style="fill:#ad1540"
       inkscape:connector-curvature="0"
       id="path44"
       d="m 155.08658,85.459917 c 0.69,5 -2.79,6.21 -6.22,6.21 a 6.22,6.22 0 0 1 -6.22,-6.21 c 0,-3.44 0,-8.89 3.48,-8.89 3.48,0 8.26,3.93 8.96,8.89 z"
       class="cls-2" />
    <path
       style="fill:#ad1540"
       inkscape:connector-curvature="0"
       id="path46"
       d="m 231.56658,111.03992 c -1.32,3 -2.69,6 -6,6 a 6.0250005,6.0250005 0 0 1 0,-12.05 c 3.31,0.03 9.57,-2.15 6,6.05 z"
       class="cls-2" />
    <circle
       style="fill:#ad1540"
       id="circle48"
       r="6.02"
       cy="161.82991"
       cx="129.02657"
       class="cls-2" />
    <circle
       style="fill:#ad1540"
       id="circle50"
       r="7.73"
       cy="234.98991"
       cx="122.08659"
       class="cls-2" />
    <circle
       style="fill:#ad1540"
       id="circle52"
       r="1.9400001"
       cy="235.88991"
       cx="108.94657"
       class="cls-2" />
    <circle
       style="fill:#ad1540"
       id="circle54"
       r="1.9400001"
       cy="259.90991"
       cx="134.47658"
       class="cls-2" />
    <circle
       style="fill:#ad1540"
       id="circle56"
       r="1.9400001"
       cy="228.8199"
       cx="235.85657"
       class="cls-2" />
    <circle
       style="fill:#ad1540"
       id="circle58"
       r="5.9000001"
       cy="285.82993"
       cx="297.98657"
       class="cls-2" />
    <circle
       style="fill:#ad1540"
       id="circle60"
       r="3.55"
       cy="135.96991"
       cx="322.27658"
       class="cls-2" />
    <circle
       style="fill:#ad1540"
       id="circle62"
       r="3.55"
       cy="24.089918"
       cx="161.38657"
       class="cls-2" />
    <circle
       style="fill:#ad1540"
       id="circle64"
       r="12.76"
       cy="39.579918"
       cx="276.60657"
       class="cls-2" />
    <circle
       style="fill:#ad1540"
       id="circle66"
       r="12.76"
       cy="307.04993"
       cx="48.276573"
       class="cls-2" />
    <circle
       style="fill:#ad1540"
       id="circle68"
       r="10.47"
       cy="157.37991"
       cx="22.946579"
       class="cls-2" />
    <circle
       style="fill:#ad1540"
       id="circle70"
       r="12.76"
       cy="35.15992"
       cx="33.796577"
       class="cls-2" />
    <circle
       style="fill:#ad1540"
       id="circle72"
       r="8.2600002"
       cy="338.96994"
       cx="191.29657"
       class="cls-2" />
    <circle
       style="fill:#ad1540"
       id="circle74"
       r="1.9400001"
       cy="187.56992"
       cx="206.74658"
       class="cls-2" />
    <path
       style="fill:#ad1540"
       inkscape:connector-curvature="0"
       id="path76"
       d="m 175.11658,76.909917 c 0.32,0.64 -0.82,2.55 -2,2.94 -1.18,0.39 -2,-0.87 -2,-1.94 a 1.94,1.94 0 0 1 2,-1.94 c 1.08,0 1.65,0.3 2,0.94 z"
       class="cls-2" />
    <path
       style="fill:#ad1540"
       inkscape:connector-curvature="0"
       id="path78"
       d="m 252.85658,115.56992 c 0,1.08 -3.06,3.84 -4.14,3.84 -1.08,0 -3.65,-1.29 -3.65,-2.36 a 2,2 0 0 1 1.95,-1.95 c 1.07,0 5.84,-0.6 5.84,0.47 z"
       class="cls-2" />
    <path
       style="fill:#ad1540"
       inkscape:connector-curvature="0"
       id="path80"
       d="m 81.126578,160.75992 c 0,2.07 0,2.25 -3.76,3.76 -3.76,1.51 -3.75,-1.69 -3.75,-3.76 0,-2.07 1.41,-2.77 3.75,-3.76 2.34,-0.99 3.76,1.69 3.76,3.76 z"
       class="cls-2" />
    <path
       style="fill:#ad1540"
       inkscape:connector-curvature="0"
       id="path82"
       d="m 95.696578,172.32992 c -2.18,2.5 -3.91,-1.07 -5.7,1.36 -1.79,2.43 -4.38,0.58 -4.38,-1.72 0,-2.3 5.73,-4.55 8.33,-5.65 2.6,-1.1 3.92,3.46 1.75,6.01 z"
       class="cls-2" />
  </g>
</svg>
